<svg xmlns="http://www.w3.org/2000/svg" version="1.1" xmlns:xlink="http://www.w3.org/1999/xlink" width="200" height="200"><svg xmlns="http://www.w3.org/2000/svg" version="1.1" xmlns:xlink="http://www.w3.org/1999/xlink" viewBox="0 0 200 200"><rect width="200" height="200" fill="url('#gradient')"></rect><defs><linearGradient id="SvgjsLinearGradient1001" gradientTransform="rotate(45 0.5 0.5)"><stop offset="0%" stop-color="#6d28d9"></stop><stop offset="100%" stop-color="#6d28d9"></stop></linearGradient></defs><g><g fill="#946ad8" transform="matrix(5.664413030116779,0,0,5.664413030116779,7.107140374169006,141.9189983935318)" stroke="#dedfdf" stroke-width="0"><path d="M0.51-5.36L0.51-5.36Q0.51-7.87 1.59-9.32Q2.68-10.76 4.62-10.76L4.62-10.76Q6.04-10.76 7.00-9.65L7.00-9.65L7.00-15L10.30-15L10.30 0L7.34 0L7.18-1.13Q6.16 0.20 4.60 0.20L4.60 0.20Q2.71 0.20 1.61-1.25Q0.51-2.70 0.51-5.36ZM3.81-5.76L3.80-5.16Q3.80-2.34 5.44-2.34L5.44-2.34Q6.53-2.34 7.00-3.26L7.00-3.26L7.00-7.29Q6.55-8.22 5.46-8.22L5.46-8.22Q3.94-8.22 3.81-5.76L3.81-5.76ZM17.29 0.20L17.29 0.20Q14.85 0.20 13.35-1.25Q11.85-2.71 11.85-5.03L11.85-5.03L11.85-5.30Q11.85-6.92 12.45-8.16Q13.05-9.40 14.20-10.08Q15.35-10.76 16.93-10.76L16.93-10.76Q19.16-10.76 20.45-9.38Q21.74-8.00 21.74-5.53L21.74-5.53L21.74-4.25L15.20-4.25Q15.37-3.36 15.97-2.85Q16.56-2.34 17.51-2.34L17.51-2.34Q19.07-2.34 19.95-3.44L19.95-3.44L21.46-1.66Q20.84-0.81 19.71-0.31Q18.58 0.20 17.29 0.20ZM16.91-8.22L16.91-8.22Q15.47-8.22 15.20-6.31L15.20-6.31L18.52-6.31L18.52-6.56Q18.54-7.35 18.12-7.79Q17.70-8.22 16.91-8.22ZM25.51-10.57L27.15-3.92L28.82-10.57L32.29-10.57L28.84 0L25.48 0L22.03-10.57L25.51-10.57Z"></path></g></g></svg><style>@media (prefers-color-scheme: light) { :root { filter: none; } }
@media (prefers-color-scheme: dark) { :root { filter: none; } }
</style></svg>